<svg width="22" height="30" viewBox="0 0 22 30" fill="none" xmlns="http://www.w3.org/2000/svg">
<path d="M12.0067 14.889C12.0067 8.74934 15.8472 3.50748 21.2567 1.43232C19.3253 0.514277 17.1662 0 14.8891 0C6.67916 0 0 6.67916 0 14.8891C0 23.0991 6.67916 29.7783 14.8891 29.7783C17.1663 29.7783 19.3253 29.264 21.2569 28.3458C15.8474 26.2708 12.0067 21.0288 12.0067 14.889ZM2.88176 14.8891C2.88176 8.58908 7.75904 3.4067 13.9359 2.9192C13.3235 3.55887 12.7573 4.24852 12.2425 4.98375C10.2029 7.89691 9.12498 11.3221 9.12498 14.8891C9.12498 18.456 10.203 21.8813 12.2426 24.7945C12.7574 25.5298 13.3237 26.2194 13.9362 26.8591C7.75916 26.3715 2.88176 21.1892 2.88176 14.8891Z" fill="#F2EDE4"/>
</svg>
