<svg width="32" height="33" viewBox="0 0 32 33" fill="none" xmlns="http://www.w3.org/2000/svg">
<path d="M8.36364 6.94743L5.75 4.33645L3.70265 6.39314L6.30177 9.00413L8.36364 6.94743ZM4.35606 15.2034H0V18.1207H4.35606V15.2034ZM17.4242 0.689819H14.5202V4.99284H17.4242V0.689819ZM28.2418 6.39314L26.1944 4.33645L23.5953 6.94743L25.6427 9.00413L28.2418 6.39314ZM23.5808 26.3767L26.1799 29.0022L28.2273 26.9455L25.6136 24.3345L23.5808 26.3767ZM27.5884 15.2034V18.1207H31.9444V15.2034H27.5884ZM15.9722 7.91014C11.166 7.91014 7.2601 11.8339 7.2601 16.662C7.2601 21.4902 11.166 25.4139 15.9722 25.4139C20.7784 25.4139 24.6843 21.4902 24.6843 16.662C24.6843 11.8339 20.7784 7.91014 15.9722 7.91014ZM14.5202 32.6343H17.4242V28.3312H14.5202V32.6343ZM3.70265 26.9309L5.75 28.9876L8.34912 26.3621L6.30177 24.3054L3.70265 26.9309Z" fill="#F2EDE4"/>
</svg>
